<mxfile host="Electron" agent="Mozilla/5.0 (Windows NT 10.0; Win64; x64) AppleWebKit/537.36 (KHTML, like Gecko) draw.io/26.2.2 Chrome/134.0.6998.178 Electron/35.1.2 Safari/537.36" version="26.2.2">
  <diagram name="Page-1" id="-495apB4u3VH4MKOx37l">
    <mxGraphModel dx="1428" dy="849" grid="1" gridSize="10" guides="1" tooltips="1" connect="1" arrows="1" fold="1" page="1" pageScale="1" pageWidth="850" pageHeight="1100" math="0" shadow="0">
      <root>
        <mxCell id="0" />
        <mxCell id="1" parent="0" />
        <mxCell id="pNiSJEECQ2L3DuqA0wP6-14" style="edgeStyle=orthogonalEdgeStyle;rounded=0;orthogonalLoop=1;jettySize=auto;html=1;endArrow=none;startFill=0;" parent="1" edge="1">
          <mxGeometry relative="1" as="geometry">
            <mxPoint x="590" y="139" as="sourcePoint" />
          </mxGeometry>
        </mxCell>
        <mxCell id="pNiSJEECQ2L3DuqA0wP6-15" value="1" style="edgeLabel;html=1;align=center;verticalAlign=middle;resizable=0;points=[];" parent="pNiSJEECQ2L3DuqA0wP6-14" vertex="1" connectable="0">
          <mxGeometry x="-0.8072" y="-2" relative="1" as="geometry">
            <mxPoint x="-4" y="-9" as="offset" />
          </mxGeometry>
        </mxCell>
        <mxCell id="pNiSJEECQ2L3DuqA0wP6-16" value="0..1" style="edgeLabel;html=1;align=center;verticalAlign=middle;resizable=0;points=[];" parent="pNiSJEECQ2L3DuqA0wP6-14" vertex="1" connectable="0">
          <mxGeometry x="0.7711" y="-2" relative="1" as="geometry">
            <mxPoint x="-4" y="-13" as="offset" />
          </mxGeometry>
        </mxCell>
        <mxCell id="PjAzc4tJkLRRE2QWn9RB-1" value="System" style="shape=folder;fontStyle=1;tabWidth=200;tabHeight=40;tabPosition=left;html=1;boundedLbl=1;labelInHeader=1;container=1;collapsible=0;recursiveResize=0;whiteSpace=wrap;fontSize=20;fillColor=#ffe6cc;strokeColor=#d79b00;" parent="1" vertex="1">
          <mxGeometry x="130" y="150" width="390" height="200" as="geometry" />
        </mxCell>
        <mxCell id="PjAzc4tJkLRRE2QWn9RB-39" value="Structs" style="shape=folder;fontStyle=1;tabWidth=80;tabHeight=30;tabPosition=left;html=1;boundedLbl=1;whiteSpace=wrap;fontSize=20;" parent="PjAzc4tJkLRRE2QWn9RB-1" vertex="1">
          <mxGeometry x="25" y="70" width="150" height="80" as="geometry" />
        </mxCell>
        <mxCell id="PjAzc4tJkLRRE2QWn9RB-40" value="Enums" style="shape=folder;fontStyle=1;tabWidth=80;tabHeight=30;tabPosition=left;html=1;boundedLbl=1;whiteSpace=wrap;fontSize=20;" parent="PjAzc4tJkLRRE2QWn9RB-1" vertex="1">
          <mxGeometry x="215" y="70" width="150" height="80" as="geometry" />
        </mxCell>
        <mxCell id="PjAzc4tJkLRRE2QWn9RB-12" value="Messages" style="shape=folder;fontStyle=1;tabWidth=200;tabHeight=40;tabPosition=left;html=1;boundedLbl=1;labelInHeader=1;container=1;collapsible=0;recursiveResize=0;whiteSpace=wrap;fontSize=20;fillColor=#d5e8d4;strokeColor=#82b366;" parent="1" vertex="1">
          <mxGeometry x="130" y="440" width="420" height="190" as="geometry" />
        </mxCell>
        <mxCell id="PjAzc4tJkLRRE2QWn9RB-41" value="SensorToServer&lt;div&gt;Messages&lt;/div&gt;" style="shape=folder;fontStyle=1;tabWidth=80;tabHeight=30;tabPosition=left;html=1;boundedLbl=1;whiteSpace=wrap;fontSize=20;" parent="PjAzc4tJkLRRE2QWn9RB-12" vertex="1">
          <mxGeometry x="230" y="60" width="170" height="100" as="geometry" />
        </mxCell>
        <mxCell id="PjAzc4tJkLRRE2QWn9RB-42" value="ServerToClient&lt;div&gt;Messages&lt;/div&gt;" style="shape=folder;fontStyle=1;tabWidth=80;tabHeight=30;tabPosition=left;html=1;boundedLbl=1;whiteSpace=wrap;fontSize=20;" parent="PjAzc4tJkLRRE2QWn9RB-12" vertex="1">
          <mxGeometry x="20" y="60" width="170" height="100" as="geometry" />
        </mxCell>
        <mxCell id="PjAzc4tJkLRRE2QWn9RB-29" style="edgeStyle=orthogonalEdgeStyle;rounded=0;orthogonalLoop=1;jettySize=auto;html=1;dashed=1;strokeWidth=2;" parent="1" source="PjAzc4tJkLRRE2QWn9RB-19" target="PjAzc4tJkLRRE2QWn9RB-1" edge="1">
          <mxGeometry relative="1" as="geometry">
            <Array as="points">
              <mxPoint x="620" y="250" />
              <mxPoint x="620" y="250" />
            </Array>
          </mxGeometry>
        </mxCell>
        <mxCell id="PjAzc4tJkLRRE2QWn9RB-30" value="&lt;font style=&quot;font-size: 18px;&quot;&gt;&amp;lt;&amp;lt; Import &amp;gt;&amp;gt;&lt;/font&gt;" style="edgeLabel;html=1;align=center;verticalAlign=middle;resizable=0;points=[];" parent="PjAzc4tJkLRRE2QWn9RB-29" vertex="1" connectable="0">
          <mxGeometry x="0.0476" y="-3" relative="1" as="geometry">
            <mxPoint y="-17" as="offset" />
          </mxGeometry>
        </mxCell>
        <mxCell id="PjAzc4tJkLRRE2QWn9RB-19" value="Unity" style="shape=folder;fontStyle=1;tabWidth=200;tabHeight=40;tabPosition=left;html=1;boundedLbl=1;labelInHeader=1;container=1;collapsible=0;recursiveResize=0;whiteSpace=wrap;fontSize=20;fillColor=#bac8d3;strokeColor=#23445d;" parent="1" vertex="1">
          <mxGeometry x="710" y="150" width="480" height="260" as="geometry" />
        </mxCell>
        <mxCell id="PjAzc4tJkLRRE2QWn9RB-26" value="Managers" style="shape=folder;fontStyle=1;tabWidth=80;tabHeight=30;tabPosition=left;html=1;boundedLbl=1;whiteSpace=wrap;fontSize=20;" parent="PjAzc4tJkLRRE2QWn9RB-19" vertex="1">
          <mxGeometry x="20" y="50" width="150" height="80" as="geometry" />
        </mxCell>
        <mxCell id="PjAzc4tJkLRRE2QWn9RB-27" value="MonoBehaviours" style="shape=folder;fontStyle=1;tabWidth=80;tabHeight=30;tabPosition=left;html=1;boundedLbl=1;whiteSpace=wrap;fontSize=20;" parent="PjAzc4tJkLRRE2QWn9RB-19" vertex="1">
          <mxGeometry x="220" y="50" width="200" height="80" as="geometry" />
        </mxCell>
        <mxCell id="PjAzc4tJkLRRE2QWn9RB-28" value="Logic" style="shape=folder;fontStyle=1;tabWidth=80;tabHeight=30;tabPosition=left;html=1;boundedLbl=1;whiteSpace=wrap;fontSize=20;" parent="PjAzc4tJkLRRE2QWn9RB-19" vertex="1">
          <mxGeometry x="20" y="150" width="150" height="80" as="geometry" />
        </mxCell>
        <mxCell id="PjAzc4tJkLRRE2QWn9RB-24" value="Utils" style="html=1;whiteSpace=wrap;fontSize=20;" parent="PjAzc4tJkLRRE2QWn9RB-19" vertex="1">
          <mxGeometry x="235" y="180" width="170" height="40" as="geometry" />
        </mxCell>
        <mxCell id="PjAzc4tJkLRRE2QWn9RB-31" style="edgeStyle=orthogonalEdgeStyle;rounded=0;orthogonalLoop=1;jettySize=auto;html=1;dashed=1;strokeWidth=2;" parent="1" source="PjAzc4tJkLRRE2QWn9RB-12" target="PjAzc4tJkLRRE2QWn9RB-1" edge="1">
          <mxGeometry relative="1" as="geometry">
            <mxPoint x="770" y="390" as="sourcePoint" />
            <mxPoint x="500" y="390" as="targetPoint" />
            <Array as="points">
              <mxPoint x="230" y="400" />
              <mxPoint x="230" y="400" />
            </Array>
          </mxGeometry>
        </mxCell>
        <mxCell id="PjAzc4tJkLRRE2QWn9RB-32" value="&lt;font style=&quot;font-size: 18px;&quot;&gt;&amp;lt;&amp;lt; Import &amp;gt;&amp;gt;&lt;/font&gt;" style="edgeLabel;html=1;align=center;verticalAlign=middle;resizable=0;points=[];" parent="PjAzc4tJkLRRE2QWn9RB-31" vertex="1" connectable="0">
          <mxGeometry x="0.0476" y="-3" relative="1" as="geometry">
            <mxPoint x="-73" y="-3" as="offset" />
          </mxGeometry>
        </mxCell>
        <mxCell id="K_Sivn6RJ_DFTpJ-Yy0n-1" value="Server" style="shape=folder;fontStyle=1;tabWidth=200;tabHeight=40;tabPosition=left;html=1;boundedLbl=1;labelInHeader=1;container=1;collapsible=0;recursiveResize=0;whiteSpace=wrap;fontSize=20;fillColor=#d0cee2;strokeColor=#56517e;" vertex="1" parent="1">
          <mxGeometry x="710" y="440" width="480" height="260" as="geometry" />
        </mxCell>
        <mxCell id="K_Sivn6RJ_DFTpJ-Yy0n-2" value="Database Module" style="shape=folder;fontStyle=1;tabWidth=80;tabHeight=30;tabPosition=left;html=1;boundedLbl=1;whiteSpace=wrap;fontSize=20;" vertex="1" parent="K_Sivn6RJ_DFTpJ-Yy0n-1">
          <mxGeometry x="20" y="50" width="180" height="80" as="geometry" />
        </mxCell>
        <mxCell id="K_Sivn6RJ_DFTpJ-Yy0n-3" value="Request Handlers" style="shape=folder;fontStyle=1;tabWidth=80;tabHeight=30;tabPosition=left;html=1;boundedLbl=1;whiteSpace=wrap;fontSize=20;" vertex="1" parent="K_Sivn6RJ_DFTpJ-Yy0n-1">
          <mxGeometry x="240" y="50" width="200" height="80" as="geometry" />
        </mxCell>
        <mxCell id="K_Sivn6RJ_DFTpJ-Yy0n-4" value="Logic Modules" style="shape=folder;fontStyle=1;tabWidth=80;tabHeight=30;tabPosition=left;html=1;boundedLbl=1;whiteSpace=wrap;fontSize=20;" vertex="1" parent="K_Sivn6RJ_DFTpJ-Yy0n-1">
          <mxGeometry x="20" y="150" width="180" height="80" as="geometry" />
        </mxCell>
        <mxCell id="K_Sivn6RJ_DFTpJ-Yy0n-10" value="Utils" style="html=1;whiteSpace=wrap;fontSize=20;" vertex="1" parent="K_Sivn6RJ_DFTpJ-Yy0n-1">
          <mxGeometry x="240" y="180" width="170" height="40" as="geometry" />
        </mxCell>
        <mxCell id="K_Sivn6RJ_DFTpJ-Yy0n-8" style="edgeStyle=orthogonalEdgeStyle;rounded=0;orthogonalLoop=1;jettySize=auto;html=1;dashed=1;strokeWidth=2;" edge="1" parent="1" source="K_Sivn6RJ_DFTpJ-Yy0n-1" target="PjAzc4tJkLRRE2QWn9RB-12">
          <mxGeometry relative="1" as="geometry">
            <Array as="points">
              <mxPoint x="630" y="530" />
              <mxPoint x="630" y="530" />
            </Array>
            <mxPoint x="720" y="509.5" as="sourcePoint" />
            <mxPoint x="530" y="509.5" as="targetPoint" />
          </mxGeometry>
        </mxCell>
        <mxCell id="K_Sivn6RJ_DFTpJ-Yy0n-9" value="&lt;font style=&quot;font-size: 18px;&quot;&gt;&amp;lt;&amp;lt; Import &amp;gt;&amp;gt;&lt;/font&gt;" style="edgeLabel;html=1;align=center;verticalAlign=middle;resizable=0;points=[];" vertex="1" connectable="0" parent="K_Sivn6RJ_DFTpJ-Yy0n-8">
          <mxGeometry x="0.0476" y="-3" relative="1" as="geometry">
            <mxPoint y="-17" as="offset" />
          </mxGeometry>
        </mxCell>
      </root>
    </mxGraphModel>
  </diagram>
</mxfile>
